<?xml version="1.0" encoding="iso-8859-1"?>
<!-- Uploaded to: SVG Repo, www.svgrepo.com, Generator: SVG Repo Mixer Tools -->
<svg version="1.1" id="Layer_1" xmlns="http://www.w3.org/2000/svg" xmlns:xlink="http://www.w3.org/1999/xlink" 
	 viewBox="0 0 507.6 507.6" xml:space="preserve">
<path style="fill:#FFD54F;" d="M313.8,360.8H371c34.8,0,64,30,64,66.4c0,34-28.4,62.4-62.4,62.4c-34.4,0-62.8-28-62.8-62V268.8h-12
	v158.8c0,40.8,33.6,74,74.8,74c40.4,0,74.8-33.6,74.8-74.4c0-42.8-34.4-78.4-75.2-78.4h-58.4V360.8z"/>
<g>
	<path style="fill:#BCAAA4;" d="M329.8,260v-6.8h-52v6.8c0,3.2,4.8,9.2,8,9.2h10h16h10.8C325.8,269.2,329.8,263.6,329.8,260z"/>
	<path style="fill:#BCAAA4;" d="M118.6,298c-32,0-58,26-58,58s26,58,58,58s58-26,58-58S150.2,298,118.6,298z"/>
</g>
<path style="fill:#FF7043;" d="M112.2,97.6h-4.4c-12.4,24-35.6,75.2-35.6,92.8c0,24.4,18.8,44,42,44s42-19.6,42-44
	c0-16.8-15.2-64.8-28.8-92.8h-1.6C126.2,97.6,112.2,97.6,112.2,97.6z"/>
<g>
	<path style="fill:#FFCDD2;" d="M106.2,78c0-2.4,0-4.8,0.4-7.2C106.2,73.6,106.2,75.6,106.2,78z"/>
	<path style="fill:#FFCDD2;" d="M107,68.4c0-0.8,0.4-1.6,0.4-2.8C107.4,66.4,107,67.6,107,68.4z"/>
</g>
<path style="fill:#FFD54F;" d="M236.6,5.6h-48.8c-42.8,0-78,32-78,72.4v16.4h12V78c0-34,29.6-60.4,66-60.4h48.8
	c37.6,0,63.6,31.6,63.6,59.6v0.4h12C311.8,37.6,276.6,5.6,236.6,5.6z"/>
<g>
	<path style="fill:#FFCDD2;" d="M108.2,96.4L108.2,96.4L108.2,96.4L108.2,96.4z"/>
	<path style="fill:#FFCDD2;" d="M106.2,94.4v1.2v-0.4C106.2,94.8,106.2,94.8,106.2,94.4z"/>
	<rect x="110.2" y="90.4" style="fill:#FFCDD2;" width="12" height="2.8"/>
	<path style="fill:#FFCDD2;" d="M108.2,96.4L108.2,96.4c-0.8,0-1.2-0.4-1.6-1.2v0.4v0.8L108.2,96.4L108.2,96.4z"/>
</g>
<path style="fill:#EEEEEE;" d="M341.8,81.6h-78c-7.2,0-12.8,4-13.6,16h107.2C355.4,85.6,349.4,81.6,341.8,81.6z"/>
<path style="fill:#FFCDD2;" d="M245.8,234v2c0,8.8,7.2,16.8,16,16.8h2C254.2,253.2,245.8,244,245.8,234z"/>
<path style="fill:#B2DFDB;" d="M331.8,247.2c1.2,0,2-2,2,2h10c7.2,0,12.8-4,13.6-16H250.2c0.8,12,6.8,16,13.6,16h10c0-4,0.8-2,2-2
	s2-2,2,2h52C329.8,245.2,330.6,247.2,331.8,247.2z"/>
<rect x="249.8" y="97.6" style="fill:#E0F2F1;" width="107.6" height="135.6"/>
<g>
	<path style="fill:#FFCDD2;" d="M331.8,246c-1.2,0-2,0.8-2,2h4C333.8,247.2,333,246,331.8,246z"/>
	<path style="fill:#FFCDD2;" d="M275.8,246c-1.2,0-2,0.8-2,2h4C277.8,247.2,277,246,275.8,246z"/>
</g>
<path style="fill:#E0E0E0;" d="M134.2,321.6c-4.8-2.4-10.4-3.6-15.6-3.6C97.8,318,81,334.8,81,355.6s16.8,37.6,37.6,37.6
	s37.6-16.8,37.6-37.6c0-5.2-1.2-10.4-3.2-14.8c-0.4-0.8,0-1.6,0.4-2.4l-17.2-17.6C135.8,322,135,322,134.2,321.6z"/>
<rect x="181.8" y="348.8" style="fill:#F9A825;" width="111.6" height="12"/>
<path d="M372.6,507.6c-44.4,0-80.8-36-80.8-80V268.8c0-2.4,1.6-4,4-4s4,1.6,4,4v158.8c0,39.6,32.8,72,72.8,72
	c39.2,0,72.8-33.2,72.8-72.4c0-42-32.8-76.4-73.2-76.4h-58.4c-2.4,0-4-1.6-4-4s1.6-4,4-4h58c44.8,0,81.2,38,81.2,84.4
	C453,471.6,417,507.6,372.6,507.6z"/>
<path d="M372.6,491.6c-35.2,0-65.2-29.2-65.2-64V268.8c0-2.4,1.6-4,4-4s4,1.6,4,4v90H371c35.6,0,65.6,31.2,65.6,68.4
	C437,462.8,408.2,491.6,372.6,491.6z M315.8,366.8v60.8c0,30.4,26,56,57.2,56c30.4,0,56.4-25.6,56.4-56.4
	c0-32.8-26.4-60.4-57.6-60.4H315.8z"/>
<path d="M293.8,350.8h-116c-2.4,0-4-1.6-4-4s1.6-4,4-4h115.6c2.4,0,4,1.6,4,4S295.8,350.8,293.8,350.8z"/>
<path d="M293.8,366.8h-116c-2.4,0-4-1.6-4-4s1.6-4,4-4h115.6c2.4,0,4,1.6,4,4S295.8,366.8,293.8,366.8z"/>
<path d="M118.6,420c-35.2,0-64-28.8-64-64s28.8-64,64-64s64,28.8,64,64C182.2,391.2,153.8,420,118.6,420z M118.6,300
	c-30.8,0-56,25.2-56,56s25.2,56,56,56s56-25.2,56-56C174.2,325.2,149.4,300,118.6,300z"/>
<path d="M114.6,240c-26.4,0-48-22.4-48-50.4c0-19.2,22.8-67.6,36.4-94.8c0.8-2,3.2-2.8,5.2-1.6c2,0.8,2.8,3.2,1.6,5.2
	C87,143.6,74.2,177.2,74.2,190c0,23.2,18,42.4,40,42.4s40-18.8,40-42.4c0-12.8-12.8-46-35.6-91.6c-0.8-2,0-4.4,1.6-5.2
	c2-0.8,4.4,0,5.2,1.6c13.6,27.2,36.4,76,36.4,94.8C162.6,217.6,141,240,114.6,240z"/>
<path d="M124.2,99.6h-16c-2.4,0-4-1.6-4-4V78.4c0-43.2,37.6-78.4,84-78.4H237c43.6,0,81.6,36.4,81.6,78c0,2.4-1.6,4-4,4s-4-1.6-4-4
	c0-37.2-34.4-70-73.6-70h-48.8c-42,0-76,31.6-76,70.4v13.2h8V78.4c0-34.4,30.4-62.4,68-62.4H237c38.8,0,65.6,32.4,65.6,61.2
	c0,2.4-1.6,4-4,4s-4-1.6-4-4C294.6,52,269.8,24,237,24h-48.8c-33.2,0-60,24.4-60,54.4v17.2C128.2,97.6,126.2,99.6,124.2,99.6z"/>
<path d="M343.8,255.2h-80c-11.2,0-20-8.8-20-20V95.6c0-11.2,8.8-20,20-20h80c11.2,0,20,8.8,20,20v139.6
	C363.8,246,354.6,255.2,343.8,255.2z M263.8,83.6c-6.4,0-12,5.2-12,12v139.6c0,6.4,5.2,12,12,12h80c6.4,0,12-5.2,12-12V95.6
	c0-6.4-5.2-12-12-12H263.8z"/>
<path d="M324.2,271.2h-42.4c-6.4,0-10-4-10-11.2v-6.8c0-2.4,1.6-4,4-4s4,1.6,4,4v6.8c0,3.2,0.8,3.2,2,3.2h42.4
	c3.2,0,3.2-1.6,3.2-3.2v-6.8c0-2.4,1.6-4,4-4s4,1.6,4,4v6.8C335.8,266.4,331,271.2,324.2,271.2z"/>
<path d="M118.6,399.6C94.6,399.6,75,380,75,356s19.6-43.6,43.6-43.6c6.4,0,12.4,1.2,18,4c2,0.8,2.8,3.2,2,5.2s-3.2,2.8-5.2,2
	c-4.8-2-9.6-3.2-14.8-3.2C99,320.4,83,336.4,83,356s16,35.6,35.6,35.6s35.6-16,35.6-35.6c0-4.8-0.8-9.6-2.8-14c-0.8-2,0-4.4,2-5.2
	c2-0.8,4.4,0,5.2,2c2.4,5.6,3.6,11.2,3.6,17.2C162.2,380,142.6,399.6,118.6,399.6z"/>
<path d="M120.2,372.8c-2.4,0-4-1.6-4-4v-24c0-2.4,1.6-4,4-4s4,1.6,4,4v24C124.2,371.2,122.2,372.8,120.2,372.8z"/>
<path d="M321.8,99.6h-72c-2.4,0-4-1.6-4-4s1.6-4,4-4h72c2.4,0,4,1.6,4,4S323.8,99.6,321.8,99.6z"/>
<path d="M357.8,99.6h-4c-2.4,0-4-1.6-4-4s1.6-4,4-4h4c2.4,0,4,1.6,4,4S359.8,99.6,357.8,99.6z"/>
<path d="M321.8,239.2h-72c-2.4,0-4-1.6-4-4s1.6-4,4-4h72c2.4,0,4,1.6,4,4S323.8,239.2,321.8,239.2z"/>
<path d="M357.8,239.2h-8c-2.4,0-4-1.6-4-4s1.6-4,4-4h8c2.4,0,4,1.6,4,4S359.8,239.2,357.8,239.2z"/>
</svg>